<svg width="1289" height="2500" viewBox="0 0 1289 2500" fill="none" xmlns="http://www.w3.org/2000/svg">
<path fill-rule="evenodd" clip-rule="evenodd" d="M714.854 2141.39C612.718 2156.65 506.888 2172.68 397.364 2189.5C336.412 2198.85 285.65 2153.12 285.65 2087.98L285.786 1703.07L285.921 1254.03C285.921 1251.79 285.921 1249.54 285.921 1247.27C285.921 1168.89 223.753 1103.38 146.367 1101.62C66.7373 1099.83 0 1165.35 0 1247.33V2275.15C0 2350.23 30.6521 2412.86 79.4947 2452.94C127.31 2492.59 192.371 2508.78 262.594 2495.37L495.427 2449.42C570.407 2434.72 643.442 2419.91 714.854 2405.75L915.846 2365.99L1106.3 2328.28C1157.95 2317.96 1203.85 2284.58 1236.55 2238.01C1270.31 2189.8 1288.43 2132.39 1288.48 2073.55V1391.49C1261.27 1416.62 1225.58 1430.55 1188.54 1430.51C1151.51 1430.46 1115.85 1416.44 1088.7 1391.25V1483.36V1614.39L1088.84 1980.62C1088.84 2037.9 1049.64 2090.3 1000.94 2097.6C908.9 2111.66 813.323 2126.66 714.854 2141.39Z" fill="#FF4998"/>
<path fill-rule="evenodd" clip-rule="evenodd" d="M1088.65 855.934L1088.78 1246.75V1253.43C1091.7 1318.6 1136.84 1369.93 1190.69 1368.71C1243.29 1367.52 1285.67 1316.06 1288.48 1253.35V427.218C1288.32 368.222 1270.12 310.686 1236.31 262.338C1203.31 216.009 1157.33 181.249 1105.51 171.194L915.334 133.623L714.747 93.9977L495.806 50.7504L263.351 4.8001C193.074 -9.30934 127.823 8.44909 79.8722 48.0474C31.0566 88.1593 0 151.3 0 226.443V997.164V1099.17C38.0216 1061.21 89.5243 1039.83 143.257 1039.71L143.744 1039.95H147.691C199.718 1041.16 249.275 1062.38 286.055 1099.2V997.272V833.662L286.19 412.92C286.19 347.805 336.98 302.531 397.769 311.829C507.059 328.191 612.719 344.291 714.747 360.131C812.783 375.213 908.55 389.431 1000.53 403.378C1049.19 410.676 1088.4 463.276 1088.4 519.849L1088.65 855.934Z" fill="#01CC74"/>
<path fill-rule="evenodd" clip-rule="evenodd" d="M654.41 1254.34C654.41 1293.96 625.269 1326.27 588.361 1326.67C551.453 1327.08 521.039 1294.78 521.039 1254.36C521.039 1213.95 551.481 1181.38 588.361 1181.78C625.242 1182.19 654.41 1214.71 654.41 1254.34ZM953.272 1563.53C953.272 1459.37 953.137 1354.73 953.137 1250.55C953.137 1146.37 953.137 1042.92 953.137 938.762C953.137 834.607 953.001 729.939 952.892 625.514C952.892 579.1 920.124 536.794 879.618 531.685C821.821 524.36 762.889 517.115 702.9 509.438C641.261 501.544 578.809 493.678 514.599 485.65C468.031 479.594 429.202 516.574 429.202 567.449C429.202 681.398 429.158 795.41 429.068 909.486C428.977 1023.56 428.977 1137.32 429.068 1250.77V1933.84C429.068 1984.74 467.761 2021.7 514.328 2015.83C578.7 2007.72 641.504 1999.8 702.9 1992.12C763.132 1984.59 822.119 1977.12 879.862 1969.71C920.639 1964.55 953.406 1922 953.406 1875.32C953.271 1771.41 953.272 1667.71 953.272 1563.53Z" fill="#2F3E83"/>
</svg>
